External Loads File
version=1
nRows=77
nColumns=13
Range=5.000000e-03-10 seconds
endheader
time 	forceRightX 	forceRightY 	forceRightZ 	pointRightX 	pointRightY 	pointRightZ 	forceLeftX 	forceLeftY 	forceLeftZ 	pointLeftX 	pointLeftY 	pointLeftZ 		
5.005000 63.251414 -134.265369 -0.000000 0.166965 0.222993 -0.110812 -128.089144 266.214762 -0.000000 0.402709 0.446773 -0.359138
5.010000 50.478232 -168.164576 -0.000000 0.161351 0.231729 -0.110656 -129.686279 307.683296 -0.000000 0.407248 0.437782 -0.360640
5.015000 38.859506 -192.537232 -0.000000 0.156420 0.240415 -0.110427 -131.530524 353.387744 -0.000000 0.411457 0.428837 -0.360604
5.020000 27.801994 -207.834743 -0.000000 0.151995 0.249264 -0.110349 -131.669076 403.096128 -0.000000 0.415162 0.418708 -0.360743
5.025000 18.015003 -214.772051 -0.000000 0.148283 0.258230 -0.110044 -130.172719 455.593289 -0.000000 0.418440 0.408210 -0.360738
5.030000 9.868591 -214.682827 -0.000000 0.145105 0.267460 -0.109864 -126.477531 509.954027 -0.000000 0.421163 0.397428 -0.360796
5.035000 3.863286 -209.266428 -0.000000 0.142469 0.276910 -0.109539 -120.753025 565.186255 -0.000000 0.423442 0.386586 -0.360864
5.040000 -0.058755 -200.360153 -0.000000 0.140257 0.286684 -0.109376 -112.610410 620.580004 -0.000000 0.425514 0.375581 -0.360443
5.045000 -2.380210 -189.607199 -0.000000 0.138609 0.296914 -0.109214 -101.164402 675.593897 -0.000000 0.427087 0.363876 -0.360003
5.050000 -2.884916 -178.259792 -0.000000 0.137556 0.307280 -0.109186 -88.994864 729.328753 -0.000000 0.428063 0.352220 -0.360154
5.055000 -2.254833 -167.083424 -0.000000 0.137020 0.317673 -0.109172 -76.669335 781.571557 -0.000000 0.428543 0.340503 -0.360184
5.060000 -1.152582 -156.409108 -0.000000 0.137141 0.328192 -0.109273 -64.686552 832.373273 -0.000000 0.428510 0.328780 -0.360201
5.065000 -0.050190 -146.297517 -0.000000 0.137900 0.339113 -0.109233 -53.704390 881.972442 -0.000000 0.428016 0.317420 -0.360175
5.070000 0.523445 -136.722578 -0.000000 0.139191 0.349833 -0.109281 -42.668276 930.813095 -0.000000 0.426993 0.305424 -0.360547
5.075000 0.857634 -127.676949 -0.000000 0.141237 0.360575 -0.109415 -34.589821 979.169537 -0.000000 0.425617 0.293997 -0.360076
5.080000 0.708836 -119.196300 -0.000000 0.143916 0.371197 -0.109453 -28.175889 1027.519241 -0.000000 0.423639 0.282705 -0.360003
5.085000 0.119845 -111.352127 -0.000000 0.147168 0.381738 -0.109669 -23.339384 1076.195268 -0.000000 0.421100 0.271721 -0.359898
5.090000 -0.808581 -104.241980 -0.000000 0.151171 0.391694 -0.109926 -20.453332 1125.462162 -0.000000 0.417850 0.261042 -0.359887
5.095000 -2.318516 -97.974193 -0.000000 0.155536 0.401967 -0.110212 -16.261867 1175.574326 -0.000000 0.413978 0.250693 -0.359989
5.100000 -4.308373 -92.666755 -0.000000 0.160407 0.412091 -0.110545 -11.411266 1226.561752 -0.000000 0.409657 0.240665 -0.359929
5.105000 -6.770303 -88.434746 -0.000000 0.165803 0.421890 -0.110923 -6.735062 1278.223697 -0.000000 0.404809 0.231408 -0.359909
5.110000 -10.144308 -85.307526 -0.000000 0.171931 0.431545 -0.111255 2.947425 1330.022004 -0.000000 0.399468 0.222064 -0.359790
5.115000 -14.287088 -83.275049 -0.000000 0.178406 0.440638 -0.111683 14.634006 1380.941728 -0.000000 0.393602 0.213209 -0.359753
5.120000 -19.402904 -82.207388 -0.000000 0.185375 0.449222 -0.111937 30.846705 1429.589236 -0.000000 0.387180 0.204591 -0.359683
5.125000 -25.507916 -81.923407 -0.000000 0.192918 0.457557 -0.112475 51.593861 1474.298755 -0.000000 0.380303 0.196715 -0.359654
5.130000 -32.529378 -82.248216 -0.000000 0.200767 0.464989 -0.112835 75.139668 1513.382806 -0.000000 0.372968 0.189355 -0.359574
5.135000 -40.564359 -82.941279 -0.000000 0.208979 0.472119 -0.113211 102.251337 1545.162681 -0.000000 0.365290 0.182642 -0.359588
5.140000 -49.586337 -83.762529 -0.000000 0.217239 0.478672 -0.113741 130.914566 1568.365576 -0.000000 0.357123 0.176551 -0.359556
5.145000 -59.706580 -84.307727 -0.000000 0.226149 0.484760 -0.114107 161.853644 1581.886645 -0.000000 0.348698 0.171097 -0.359482
5.150000 -70.795835 -84.170435 -0.000000 0.235475 0.490191 -0.114211 192.938017 1585.157088 -0.000000 0.340007 0.166173 -0.359394
5.155000 -82.497187 -83.001541 -0.000000 0.244625 0.494990 -0.114914 220.589531 1578.084815 -0.000000 0.331072 0.161938 -0.359454
5.160000 -94.614991 -80.249121 -0.000000 0.254272 0.499139 -0.115263 246.625598 1560.066199 -0.000000 0.322096 0.158179 -0.359436
5.165000 -106.718086 -75.651725 -0.000000 0.263998 0.502571 -0.115620 269.350612 1531.124554 -0.000000 0.312950 0.154743 -0.359458
5.170000 -118.401945 -69.108655 -0.000000 0.273866 0.505382 -0.115813 287.811019 1491.437466 -0.000000 0.303750 0.152351 -0.359481
5.175000 -129.393234 -60.392276 -0.000000 0.284388 0.507538 -0.116377 304.660244 1440.634775 -0.000000 0.294414 0.150660 -0.359468
5.180000 -138.960136 -50.251499 -0.000000 0.294003 0.509069 -0.116339 313.038931 1380.432676 -0.000000 0.285067 0.149716 -0.359401
5.185000 -146.850473 -38.482797 -0.000000 0.303987 0.509851 -0.116657 318.247441 1310.128564 -0.000000 0.275763 0.149385 -0.359343
5.190000 -152.240803 -27.349452 -0.000000 0.313742 0.510032 -0.116874 304.197860 1234.243054 -0.000000 0.270699 0.150036 -0.358316
5.195000 -155.699601 -12.734765 -0.000000 0.323291 0.509661 -0.117114 307.509609 1144.346506 -0.000000 0.259214 0.150245 -0.359719
5.200000 -156.465391 2.125711 -0.000000 0.332521 0.508676 -0.117360 302.744678 1047.516431 -0.000000 0.249104 0.153082 -0.360498
5.205000 -154.861606 16.908140 -0.000000 0.341369 0.506935 -0.117640 290.083660 945.191399 -0.000000 0.240266 0.154876 -0.360206
5.210000 -151.269237 32.914789 -0.000000 0.350005 0.504623 -0.117787 278.238783 836.341344 -0.000000 0.230713 0.158603 -0.358329
5.215000 -146.515862 49.429347 -0.000000 0.358174 0.501747 -0.117789 261.738849 724.324881 -0.000000 0.222358 0.162617 -0.357963
5.220000 -141.245166 67.635884 -0.000000 0.366026 0.497777 -0.117618 244.362978 609.512801 -0.000000 0.214511 0.167880 -0.357974
5.225000 -136.229601 88.142161 -0.000000 0.373262 0.493368 -0.117425 225.310780 493.997768 -0.000000 0.206854 0.173664 -0.357901
5.230000 -131.882545 112.144540 -0.000000 0.380234 0.487833 -0.117061 205.623967 379.574282 -0.000000 0.199457 0.180364 -0.357719
5.235000 -128.852257 140.254512 -0.000000 0.386526 0.481397 -0.116782 184.337211 269.367864 -0.000000 0.192474 0.187388 -0.357581
5.240000 -127.539264 173.164175 -0.000000 0.392223 0.474387 -0.116284 161.870982 166.086659 -0.000000 0.185882 0.194445 -0.357305
5.245000 -127.755149 211.532057 -0.000000 0.397461 0.466719 -0.115754 139.136786 71.821166 -0.000000 0.179583 0.202110 -0.356968
5.250000 -129.307448 255.399055 -0.000000 0.402372 0.458571 -0.115482 116.483376 -11.404936 -0.000000 0.173633 0.210387 -0.356936
5.255000 -131.767613 304.484887 -0.000000 0.406952 0.449601 -0.115172 94.204296 -82.042489 -0.000000 0.167956 0.218960 -0.356917
5.260000 -135.430043 357.933972 -0.000000 0.411376 0.440347 -0.115271 72.830661 -138.758280 -0.000000 0.162788 0.227474 -0.357084
5.265000 -140.350888 414.978437 -0.000000 0.415112 0.430604 -0.114938 53.074633 -180.956788 -0.000000 0.158393 0.236288 -0.357081
5.270000 -146.242837 475.038516 -0.000000 0.418450 0.420368 -0.114556 35.530179 -208.707284 -0.000000 0.154541 0.245185 -0.357362
5.275000 -153.412101 537.458302 -0.000000 0.421575 0.410107 -0.114702 21.096465 -222.735891 -0.000000 0.151005 0.254096 -0.357773
5.280000 -162.359310 601.474540 -0.000000 0.423994 0.399820 -0.115064 10.756991 -224.627472 -0.000000 0.148050 0.263152 -0.358808
5.285000 -170.967894 666.737205 -0.000000 0.426059 0.389069 -0.115705 4.436464 -216.787578 -0.000000 0.145454 0.272543 -0.358492
5.290000 -178.106051 732.383372 -0.000000 0.427944 0.377769 -0.116002 2.386367 -202.104139 -0.000000 0.143493 0.282244 -0.359514
5.295000 -182.681278 797.525850 -0.000000 0.429408 0.365997 -0.116053 4.523240 -183.686077 -0.000000 0.141857 0.292215 -0.359069
5.300000 -184.571878 861.108243 -0.000000 0.430445 0.354330 -0.116049 10.489482 -164.456892 -0.000000 0.140802 0.302702 -0.359149
5.305000 -184.147814 922.089466 -0.000000 0.431107 0.342744 -0.116177 19.461262 -146.746067 -0.000000 0.140385 0.313251 -0.360216
5.310000 -180.070407 979.907832 -0.000000 0.431385 0.331167 -0.116391 30.019957 -132.087997 -0.000000 0.140542 0.324011 -0.360532
5.315000 -172.539318 1033.817380 -0.000000 0.430977 0.319753 -0.115871 40.979924 -121.171003 -0.000000 0.141145 0.334919 -0.359767
5.320000 -159.534015 1083.612376 -0.000000 0.429959 0.308231 -0.115307 51.044493 -114.110039 -0.000000 0.142564 0.346111 -0.360842
5.325000 -145.905542 1128.270757 -0.000000 0.428389 0.297093 -0.114932 59.923576 -110.262761 -0.000000 0.144388 0.356794 -0.360070
5.330000 -128.014417 1168.283708 -0.000000 0.426280 0.285875 -0.114470 66.706904 -109.160616 -0.000000 0.146952 0.367468 -0.361173
5.335000 -108.259757 1203.512909 -0.000000 0.423597 0.274993 -0.114186 71.370991 -109.992315 -0.000000 0.150008 0.378059 -0.360457
5.340000 -88.426063 1234.205444 -0.000000 0.420646 0.264620 -0.114393 74.044106 -112.015665 -0.000000 0.153760 0.388409 -0.361375
5.345000 -66.573845 1261.017792 -0.000000 0.416784 0.254514 -0.113920 74.695150 -114.851903 -0.000000 0.158069 0.398587 -0.361523
5.350000 -44.900938 1284.295620 -0.000000 0.412728 0.244796 -0.114461 73.740074 -118.055225 -0.000000 0.162872 0.408578 -0.360876
5.355000 -21.687644 1304.479045 -0.000000 0.407966 0.235282 -0.114286 71.199210 -121.519085 -0.000000 0.168224 0.418302 -0.361006
5.360000 1.791862 1321.695046 -0.000000 0.402584 0.226342 -0.113978 67.292504 -124.938030 -0.000000 0.174067 0.427789 -0.360886
5.365000 25.693882 1335.947413 -0.000000 0.396690 0.217788 -0.114050 62.062099 -127.972157 -0.000000 0.180404 0.436886 -0.360775
5.370000 49.304703 1347.079452 -0.000000 0.390189 0.209564 -0.113727 55.629734 -130.096143 -0.000000 0.187125 0.445183 -0.360772
5.375000 75.932518 1354.551803 -0.000000 0.383366 0.201671 -0.113473 47.748768 -130.803667 -0.000000 0.194809 0.453400 -0.360089
5.380000 101.324353 1357.918027 -0.000000 0.375965 0.194458 -0.113260 38.928319 -129.182857 -0.000000 0.202472 0.461126 -0.361989
5.385000 125.128409 1356.501922 -0.000000 0.368155 0.187826 -0.113114 29.325106 -124.489569 -0.000000 0.210201 0.468275 -0.361449
